<?xml version="1.0" encoding="UTF-8" standalone="no"?>
<svg
   xmlns:dc="http://purl.org/dc/elements/1.1/"
   xmlns:cc="http://creativecommons.org/ns#"
   xmlns:rdf="http://www.w3.org/1999/02/22-rdf-syntax-ns#"
   xmlns:svg="http://www.w3.org/2000/svg"
   xmlns="http://www.w3.org/2000/svg"
   xmlns:xlink="http://www.w3.org/1999/xlink"
   xmlns:sodipodi="http://sodipodi.sourceforge.net/DTD/sodipodi-0.dtd"
   xmlns:inkscape="http://www.inkscape.org/namespaces/inkscape"
   id="svg2"
   height="393.30801"
   width="293.33234"
   version="1.0"
   sodipodi:docname="cat_glasses_3.svg"
   inkscape:version="0.92.2 (5c3e80d, 2017-08-06)">
  <sodipodi:namedview
     pagecolor="#ffffff"
     bordercolor="#666666"
     borderopacity="1"
     objecttolerance="10"
     gridtolerance="10"
     guidetolerance="10"
     inkscape:pageopacity="0"
     inkscape:pageshadow="2"
     inkscape:window-width="1920"
     inkscape:window-height="1016"
     id="namedview43"
     showgrid="false"
     inkscape:zoom="1.6971655"
     inkscape:cx="-38.657446"
     inkscape:cy="166.4679"
     inkscape:window-x="0"
     inkscape:window-y="27"
     inkscape:window-maximized="1"
     inkscape:current-layer="svg2" />
  <metadata
     id="metadata925">
    <rdf:RDF>
      <cc:Work
         rdf:about="">
        <dc:format>image/svg+xml</dc:format>
        <dc:type
           rdf:resource="http://purl.org/dc/dcmitype/StillImage" />
        <dc:title></dc:title>
      </cc:Work>
    </rdf:RDF>
  </metadata>
  <defs
     id="defs4">
    <linearGradient
       inkscape:collect="always"
       xlink:href="#linearGradient3290"
       id="linearGradient3298"
       x1="22.707098"
       y1="171.16666"
       x2="22.707098"
       y2="344.0325"
       gradientUnits="userSpaceOnUse"
       gradientTransform="matrix(0.29241705,0,0,0.2326275,81.916661,137.8764)" />
    <linearGradient
       id="linearGradient3290">
      <stop
         style="stop-color:#000000;stop-opacity:1;"
         offset="0"
         id="stop3292" />
      <stop
         style="stop-color:#3b3b3b;stop-opacity:1;"
         offset="1"
         id="stop3294" />
    </linearGradient>
    <linearGradient
       inkscape:collect="always"
       xlink:href="#linearGradient3290"
       id="linearGradient3296"
       x1="273.88062"
       y1="171.16666"
       x2="273.88062"
       y2="346.81351"
       gradientUnits="userSpaceOnUse"
       gradientTransform="matrix(0.29241705,0,0,0.2326275,81.916661,137.8764)" />
    <linearGradient
       inkscape:collect="always"
       xlink:href="#linearGradient3302"
       id="linearGradient3311"
       gradientUnits="userSpaceOnUse"
       x1="457.40729"
       y1="13.463348"
       x2="459.56552"
       y2="80.933617"
       gradientTransform="matrix(1.2706721,0,0,0.465255,-495.49416,157.51808)" />
    <linearGradient
       inkscape:collect="always"
       id="linearGradient3302">
      <stop
         style="stop-color:#c4c4c4;stop-opacity:1;"
         offset="0"
         id="stop3304" />
      <stop
         style="stop-color:#c4c4c4;stop-opacity:0;"
         offset="1"
         id="stop3306" />
    </linearGradient>
    <linearGradient
       inkscape:collect="always"
       xlink:href="#linearGradient3302"
       id="linearGradient3315"
       gradientUnits="userSpaceOnUse"
       gradientTransform="matrix(1.2706721,0,0,0.465255,-422.33544,157.63055)"
       x1="457.40729"
       y1="13.463348"
       x2="459.56552"
       y2="80.933617" />
  </defs>
  <g
     id="g981"
     transform="matrix(0.89356246,0,0,0.83090203,423.87293,80.031756)">
    <path
       sodipodi:nodetypes="cssssc"
       style="fill:#f2d316;fill-opacity:1;fill-rule:evenodd;stroke:#000000;stroke-width:4;stroke-linecap:butt;stroke-linejoin:round;stroke-miterlimit:4;stroke-dasharray:none;stroke-opacity:1"
       id="path3205"
       d="m -312.42955,298.91329 c 0.64948,-13.20604 13.81789,-103.86945 68.42051,-103.61344 73.90926,0.34654 41.79431,-75.99649 54.5745,-78.54636 17.16617,-3.42495 36.26002,98.09018 -33.74782,97.19758 -66.54417,-0.84844 -60.82322,82.75861 -63.24719,84.96222 -5.5,5 -25.5,1.5 -26,0 z"
       inkscape:connector-curvature="0" />
    <path
       sodipodi:nodetypes="ccccc"
       style="fill:#000000;fill-opacity:0.31372549;fill-rule:evenodd;stroke:none;stroke-width:4;stroke-linecap:butt;stroke-linejoin:round;stroke-miterlimit:4;stroke-dasharray:none;stroke-opacity:1"
       id="path3257"
       d="m -293.04202,271.97461 c -2.12832,18.8433 -13.41469,24.43943 -19.0414,23.43605 -0.15403,1.18037 -0.28749,2.35596 -0.34375,3.5 0.5,1.5 20.5,5 26,0 12.06165,-66.63224 2.80753,-54.27486 -6.61485,-26.93605 z"
       inkscape:connector-curvature="0" />
  </g>
  <path
     inkscape:connector-curvature="0"
     d="m 217.71721,265.57245 a 84.748971,68.628238 0 1 1 -169.497938,0 84.748971,68.628238 0 1 1 169.497938,0 z"
     id="path2383"
     style="opacity:1;fill:#f2d316;fill-opacity:1;fill-rule:nonzero;stroke:#000000;stroke-width:2.47236133;stroke-linecap:round;stroke-linejoin:round;stroke-miterlimit:4;stroke-dasharray:none;stroke-opacity:1" />
  <path
     inkscape:connector-curvature="0"
     d="m 207.53959,232.96574 c 2.19927,6.1042 3.36991,12.56439 3.36991,19.24128 0,37.88278 -37.95984,68.62199 -84.74127,68.62199 -32.162245,0 -60.167397,-14.53489 -74.524234,-35.92747 10.318777,28.47796 42.837399,49.29382 81.328434,49.29381 46.78143,0 84.74126,-30.73921 84.74126,-68.62199 0,-11.7971 -3.69061,-22.90778 -10.1741,-32.60762 z"
     id="path3339"
     style="opacity:1;fill:#000000;fill-opacity:0.31372549;fill-rule:nonzero;stroke:none;stroke-width:2.47236133;stroke-linecap:round;stroke-linejoin:round;stroke-miterlimit:4;stroke-dasharray:none;stroke-opacity:1" />
  <g
     id="g968"
     transform="matrix(0.69129962,0,0,0.74751408,261.85123,33.602038)">
    <path
       style="fill:#f2d316;fill-opacity:1;fill-rule:nonzero;stroke:#000000;stroke-width:4;stroke-linecap:round;stroke-linejoin:round;stroke-miterlimit:4;stroke-opacity:1"
       id="path3238"
       d="m -93.77379,406.95785 c 0,21.54475 -17.48559,20.77422 -39.03034,20.77422 -11.9799,0 -22.70476,0.23824 -29.86625,-3.25428 -5.71779,-2.78845 -9.16409,-7.95509 -9.16409,-17.51994 0,-21.54474 17.48559,-39.03033 39.03034,-39.03033 21.54475,0 39.03034,17.48559 39.03034,39.03033 z"
       inkscape:connector-curvature="0" />
    <g
       id="g3263"
       transform="matrix(-1,0,0,1,238.89546,-204.10973)">
      <path
         style="fill:none;fill-opacity:0.75;fill-rule:evenodd;stroke:#000000;stroke-width:4;stroke-linecap:round;stroke-linejoin:miter;stroke-miterlimit:4;stroke-dasharray:none;stroke-opacity:1"
         id="path3265"
         d="m 357.34172,628.69417 c -3.5026,-11.33139 0.50038,-24.55134 0.50038,-24.55134"
         inkscape:connector-curvature="0" />
      <path
         style="fill:none;fill-opacity:0.75;fill-rule:evenodd;stroke:#000000;stroke-width:4;stroke-linecap:round;stroke-linejoin:miter;stroke-miterlimit:4;stroke-dasharray:none;stroke-opacity:1"
         id="path3267"
         d="m 375.36715,631.21226 c 4.29303,-18.25613 -0.61329,-32.73512 -0.61329,-32.73512"
         inkscape:connector-curvature="0" />
      <path
         style="fill:none;fill-opacity:0.75;fill-rule:evenodd;stroke:#000000;stroke-width:4;stroke-linecap:round;stroke-linejoin:miter;stroke-miterlimit:4;stroke-dasharray:none;stroke-opacity:1"
         id="path3269"
         d="m 393.62142,629.3237 c 8.81331,-13.84948 1.25905,-25.18087 1.25905,-25.18087"
         inkscape:connector-curvature="0" />
    </g>
    <path
       style="fill:#000000;fill-opacity:0.31372549;fill-rule:nonzero;stroke:none;stroke-width:4;stroke-linecap:round;stroke-linejoin:round;stroke-miterlimit:4;stroke-opacity:1"
       id="path3332"
       d="m -112.78724,373.74995 c 4.72285,6.47998 7.53125,14.46734 7.53125,23.09375 1e-5,12.4664 -5.83515,23.55857 -14.90625,30.75 15.08125,-0.57257 25.90625,-3.69375 25.90625,-20.625 0,-14.03175 -7.40662,-26.33968 -18.53125,-33.21875 z"
       inkscape:connector-curvature="0" />
  </g>
  <g
     id="g977"
     transform="matrix(0.72905076,0,0,0.72437792,286.99023,44.58355)">
    <path
       style="fill:#f2d316;fill-opacity:1;fill-rule:nonzero;stroke:#000000;stroke-width:4;stroke-linecap:round;stroke-linejoin:round;stroke-miterlimit:4;stroke-opacity:1"
       id="path3235"
       d="m -243.00181,404.14316 c 0,21.54474 -17.48559,20.77422 -39.03034,20.77422 -21.54474,0 -39.03033,0.77052 -39.03033,-20.77422 0,-21.54475 17.48559,-39.03034 39.03033,-39.03034 21.54475,0 39.03034,17.48559 39.03034,39.03034 z"
       inkscape:connector-curvature="0" />
    <path
       style="fill:#000000;fill-opacity:0.31372549;fill-rule:nonzero;stroke:none;stroke-width:4;stroke-linecap:round;stroke-linejoin:round;stroke-miterlimit:4;stroke-opacity:1"
       id="path3327"
       d="m -261.53684,370.93525 c 4.72285,6.47998 7.53125,14.46734 7.53125,23.09375 1e-5,12.4664 -5.83515,23.55857 -14.90625,30.75 15.08125,-0.57257 25.90625,-3.69375 25.90625,-20.625 0,-14.03175 -7.40662,-26.33968 -18.53125,-33.21875 z"
       inkscape:connector-curvature="0" />
    <g
       id="g2410"
       transform="translate(-652.65287,-206.92443)">
      <path
         style="fill:none;fill-opacity:0.75;fill-rule:evenodd;stroke:#000000;stroke-width:4;stroke-linecap:round;stroke-linejoin:miter;stroke-miterlimit:4;stroke-dasharray:none;stroke-opacity:1"
         id="path2412"
         d="m 357.34172,628.69417 c -3.5026,-11.33139 0.50038,-24.55134 0.50038,-24.55134"
         inkscape:connector-curvature="0" />
      <path
         style="fill:none;fill-opacity:0.75;fill-rule:evenodd;stroke:#000000;stroke-width:4;stroke-linecap:round;stroke-linejoin:miter;stroke-miterlimit:4;stroke-dasharray:none;stroke-opacity:1"
         id="path2414"
         d="m 375.36715,631.21226 c 4.29303,-18.25613 -0.61329,-32.73512 -0.61329,-32.73512"
         inkscape:connector-curvature="0" />
      <path
         style="fill:none;fill-opacity:0.75;fill-rule:evenodd;stroke:#000000;stroke-width:4;stroke-linecap:round;stroke-linejoin:miter;stroke-miterlimit:4;stroke-dasharray:none;stroke-opacity:1"
         id="path2416"
         d="m 393.62142,629.3237 c 8.81331,-13.84948 1.25905,-25.18087 1.25905,-25.18087"
         inkscape:connector-curvature="0" />
    </g>
    <path
       style="fill:#000000;fill-opacity:0.31372549;fill-rule:nonzero;stroke:none;stroke-width:4;stroke-linecap:round;stroke-linejoin:round;stroke-miterlimit:4;stroke-opacity:1"
       id="path3349"
       d="m -315.84934,384.654 c -3.31254,5.73475 -5.21875,12.4056 -5.21875,19.5 0,17.5051 11.55269,20.26284 27.4375,20.6875 -15.77979,-6.57803 -23.80465,-22.20756 -22.21875,-40.1875 z"
       inkscape:connector-curvature="0" />
  </g>
  <g
     transform="translate(78.670176,15.582655)"
     id="g959">
    <path
       style="fill:#e3dbdb;fill-opacity:1;fill-rule:evenodd;stroke:#000000;stroke-width:4;stroke-linecap:butt;stroke-linejoin:round;stroke-miterlimit:4;stroke-dasharray:none;stroke-opacity:1"
       id="path3288"
       d="m 400.29723,304.72971 72.76745,-15.76016 c 0,0 12.42409,19.9535 26.81996,8.58429 14.39587,-11.36922 -5.74077,-22.66151 -5.74077,-22.66151 0,0 20.21722,-11.03467 0.3443,-20.93755 -19.87293,-9.90288 -26.50496,15.82679 -26.50496,15.82679 l -70.51608,12.45391 c 0,0 -18.34189,-24.58811 -31.81474,-8.35597 -13.47285,16.23214 5.01067,26.39874 5.01067,26.39874 0,0 -14.82685,12.89047 4.08764,21.53581 18.9145,8.64532 24.55271,-14.73652 25.54653,-17.08435 z"
       inkscape:connector-curvature="0" />
    <path
       style="fill:#000000;fill-opacity:0.31372549;fill-rule:evenodd;stroke:none;stroke-width:4;stroke-linecap:butt;stroke-linejoin:round;stroke-miterlimit:4;stroke-dasharray:none;stroke-opacity:1"
       id="path3300"
       d="m 386.86285,272.13186 c 1.97764,1.88541 3.83654,3.81669 5.64639,5.4489 0.23592,-0.0416 0.47022,-0.0924 0.70614,-0.13403 -1.73997,-1.74011 -3.89851,-3.66966 -6.35253,-5.31487 z m 108.92957,-17.4948 c 0.33338,0.46089 0.63558,0.95669 0.91124,1.44925 2.0148,6.02016 -6.39445,10.95384 -9.5075,14.30323 1.12726,2.20978 3.89323,3.67535 6.11701,5.58224 1.91416,-1.10496 19.0699,-12.1773 2.47925,-21.33472 z m -134.02474,35.93545 c 0.90937,2.22922 2.30674,4.12397 3.73861,5.62016 1.90089,-2.2584 -1.57236,-3.80273 -3.73861,-5.62016 z m 134.13957,-14.5505 c 0.44157,0.51308 0.82089,1.0873 1.11719,1.69642 6.03441,7.7081 -3.97619,17.17872 -11.87633,16.69502 -7.7556,-0.16903 -10.84066,-7.66412 -15.72266,-12.37897 -24.25878,5.25125 -50.25432,10.83214 -74.5131,16.08339 -2.47688,4.05128 -3.34406,9.33051 -6.64946,13.06286 -4.95021,7.83896 -15.93048,7.02915 -22.55248,1.67236 -0.13169,-0.0708 -0.2395,-0.17308 -0.36529,-0.24874 0.67663,3.12738 3.24852,6.39969 9.41544,9.21843 18.91449,8.64532 24.54779,-14.7462 25.54161,-17.09403 l 74.5131,-16.08339 c -10e-6,1e-5 10.68902,20.28534 25.0849,8.91613 11.69664,-9.2375 0.58086,-18.41923 -3.99292,-21.53948 z"
       inkscape:connector-curvature="0" />
  </g>
  <g
     id="g1072"
     transform="rotate(-22.897855,237.00612,284.94713)">
    <g
       transform="matrix(0.49623585,0,0,0.46205428,-73.322461,151.43858)"
       id="g894">
      <g
         transform="translate(596.62246,-169.8021)"
         id="g898">
        <path
           sodipodi:nodetypes="ssss"
           style="fill:#f2d316;fill-opacity:1;fill-rule:evenodd;stroke:#000000;stroke-width:4;stroke-linecap:butt;stroke-linejoin:round;stroke-miterlimit:4;stroke-dasharray:none;stroke-opacity:1"
           id="path3203"
           d="m -67.801824,59.797751 c 21.721664,9.433101 10.453241,93.240909 -3.292405,108.974869 -11.174954,12.79141 -77.123191,-26.26441 -70.849421,-39.45114 20.35939,-42.793105 74.141826,-69.523729 74.141826,-69.523729 z"
           inkscape:connector-curvature="0" />
        <path
           sodipodi:nodetypes="cscsc"
           style="fill:#000000;fill-opacity:0.31372549;fill-rule:evenodd;stroke:none;stroke-width:4;stroke-linecap:butt;stroke-linejoin:round;stroke-miterlimit:4;stroke-dasharray:none;stroke-opacity:1"
           id="path3262"
           d="m -74.728912,111.96553 c -9.715308,23.22231 -1.831856,38.99351 -29.206708,28.12013 0,0 -7.38894,5.30934 -9.11096,14.39272 6.85878,8.20365 31.890222,8.74969 31.890222,8.74969 13.344316,-15.21755 17.233969,-40.90777 6.427446,-51.26254 z"
           inkscape:connector-curvature="0"
           inkscape:transform-center-x="6.6662375"
           inkscape:transform-center-y="-11.665916" />
      </g>
    </g>
    <path
       sodipodi:nodetypes="ssss"
       inkscape:connector-curvature="0"
       style="fill:#f2d316;fill-opacity:1;fill-rule:evenodd;stroke:#000000;stroke-width:2.16915178;stroke-linecap:butt;stroke-linejoin:round;stroke-miterlimit:4;stroke-dasharray:none;stroke-opacity:1"
       id="path3201"
       d="m 60.791963,107.24611 c -17.617714,20.14476 4.103421,44.85596 14.219224,50.72213 8.223951,4.76909 35.436723,-15.12015 30.562793,-20.34632 C 89.757301,120.6621 66.617361,100.58512 60.791963,107.24611 Z" />
    <path
       style="opacity:1;fill:#000000;fill-opacity:0.31372549;fill-rule:nonzero;stroke:none;stroke-width:2.47236133;stroke-linecap:round;stroke-linejoin:round;stroke-miterlimit:4;stroke-dasharray:none;stroke-opacity:1"
       id="path3276"
       d="m 196.79455,186.75119 a 65.516912,53.054452 0 1 1 -131.033819,0 65.516912,53.054452 0 1 1 131.033819,0 z"
       inkscape:connector-curvature="0" />
    <path
       style="opacity:1;fill:#f2d316;fill-opacity:1;fill-rule:nonzero;stroke:#000000;stroke-width:2.47236133;stroke-linecap:round;stroke-linejoin:round;stroke-miterlimit:4;stroke-dasharray:none;stroke-opacity:1"
       id="path2418"
       d="m 193.36025,179.24239 a 65.516912,53.054452 0 1 1 -131.033816,0 65.516912,53.054452 0 1 1 131.033816,0 z"
       inkscape:connector-curvature="0" />
    <path
       style="opacity:1;fill:#000000;fill-opacity:0.31372549;fill-rule:nonzero;stroke:none;stroke-width:2.47236133;stroke-linecap:round;stroke-linejoin:round;stroke-miterlimit:4;stroke-dasharray:none;stroke-opacity:1"
       id="path3251"
       d="m 187.63696,157.52438 c 1.04792,3.76507 1.60982,7.67747 1.60982,11.69772 0,29.28605 -29.36533,53.06559 -65.53066,53.06559 -26.633802,0 -49.558685,-12.89882 -59.799689,-31.39091 6.562982,23.68719 32.698184,41.40263 63.920849,41.40263 36.16533,0 65.53067,-23.77953 65.53067,-53.06559 0,-7.73787 -2.04861,-15.0786 -5.73099,-21.70944 z"
       inkscape:connector-curvature="0" />
    <path
       style="fill:#000000;fill-opacity:1;fill-rule:nonzero;stroke:none;stroke-width:2.47236156;stroke-linecap:round;stroke-linejoin:round;stroke-miterlimit:4;stroke-opacity:1"
       id="path2397"
       d="m 145.25456,205.07057 c 0,7.66205 -10.36217,13.88054 -17.2173,13.88054 -7.38489,0 -17.21728,-6.21849 -17.21728,-13.88054 0,-7.66206 7.71334,-9.6096 17.21728,-9.6096 9.50395,0 17.2173,1.94754 17.2173,9.6096 z"
       inkscape:connector-curvature="0" />
    <g
       id="g1018"
       transform="matrix(0.68685929,0,0,0.55620666,-252.15697,-28.52293)">
      <path
         inkscape:connector-curvature="0"
         d="m 547.7673,365.87029 a 27.384189,27.384189 0 1 1 -54.76837,0 27.384189,27.384189 0 1 1 54.76837,0 z"
         id="path2387"
         style="fill:#ffffff;fill-opacity:1;fill-rule:nonzero;stroke:#000000;stroke-width:4.00000048;stroke-linecap:round;stroke-linejoin:round;stroke-miterlimit:4;stroke-dasharray:none;stroke-opacity:1" />
      <path
         inkscape:connector-curvature="0"
         d="m 611.34898,365.87029 a 27.38419,27.38419 0 1 1 -54.76838,0 27.38419,27.38419 0 1 1 54.76838,0 z"
         id="path2391"
         style="fill:#ffffff;fill-opacity:1;fill-rule:nonzero;stroke:#000000;stroke-width:4.00000048;stroke-linecap:round;stroke-linejoin:round;stroke-miterlimit:4;stroke-dasharray:none;stroke-opacity:1" />
      <path
         inkscape:connector-curvature="0"
         d="m 537.06543,369.01789 a 8.498545,8.498545 0 1 1 -16.99709,0 8.498545,8.498545 0 1 1 16.99709,0 z"
         id="path2393"
         style="fill:#000000;fill-opacity:1;fill-rule:nonzero;stroke:none;stroke-width:4;stroke-linecap:round;stroke-linejoin:round;stroke-miterlimit:4;stroke-dasharray:none;stroke-opacity:1" />
      <path
         inkscape:connector-curvature="0"
         d="m 583.65003,369.01789 a 8.498545,8.498545 0 1 1 -16.99709,0 8.498545,8.498545 0 1 1 16.99709,0 z"
         id="path2395"
         style="fill:#000000;fill-opacity:1;fill-rule:nonzero;stroke:none;stroke-width:4;stroke-linecap:round;stroke-linejoin:round;stroke-miterlimit:4;stroke-dasharray:none;stroke-opacity:1" />
    </g>
    <path
       sodipodi:nodetypes="cc"
       inkscape:connector-curvature="0"
       id="path900"
       d="m 159.82144,199.1859 82.27613,10.58865"
       style="fill:none;stroke:#000000;stroke-width:0.61809039px;stroke-linecap:butt;stroke-linejoin:miter;stroke-opacity:1" />
    <path
       sodipodi:nodetypes="ccc"
       inkscape:connector-curvature="0"
       id="path900-3"
       d="m 159.82144,199.1859 c 4.68035,-0.92669 82.27613,10.58865 82.27613,10.58865 l 1.17009,-1.85339"
       style="fill:none;stroke:#000000;stroke-width:0.62482309px;stroke-linecap:butt;stroke-linejoin:miter;stroke-opacity:1" />
    <path
       sodipodi:nodetypes="cc"
       inkscape:connector-curvature="0"
       id="path900-6"
       d="m 21.201792,194.94191 c 4.578769,-0.92695 76.694358,7.41561 76.694358,7.41561"
       style="fill:none;stroke:#000000;stroke-width:0.61809039px;stroke-linecap:butt;stroke-linejoin:miter;stroke-opacity:1" />
    <path
       sodipodi:nodetypes="cc"
       inkscape:connector-curvature="0"
       id="path900-7"
       d="m 19.18746,205.69983 c 4.578769,-0.92696 78.70869,-3.34231 78.70869,-3.34231"
       style="fill:none;stroke:#000000;stroke-width:0.61809039px;stroke-linecap:butt;stroke-linejoin:miter;stroke-opacity:1" />
    <path
       sodipodi:nodetypes="cc"
       inkscape:connector-curvature="0"
       id="path900-35"
       d="m 159.82144,199.1859 c 4.57877,-0.92695 81.41262,-2.95155 81.41262,-2.95155"
       style="fill:none;stroke:#000000;stroke-width:0.61809039px;stroke-linecap:butt;stroke-linejoin:miter;stroke-opacity:1" />
    <path
       sodipodi:nodetypes="cc"
       inkscape:connector-curvature="0"
       id="path900-7-6"
       d="M 21.625681,219.53918 C 26.20445,218.61223 97.89615,202.35752 97.89615,202.35752"
       style="fill:none;stroke:#000000;stroke-width:0.61809039px;stroke-linecap:butt;stroke-linejoin:miter;stroke-opacity:1" />
    <path
       sodipodi:nodetypes="cc"
       inkscape:connector-curvature="0"
       id="path900-7-6-2"
       d="m 159.82144,199.1859 c 4.57878,-0.92695 77.93017,-18.72854 77.93017,-18.72854"
       style="fill:none;stroke:#000000;stroke-width:0.61809039px;stroke-linecap:butt;stroke-linejoin:miter;stroke-opacity:1" />
  </g>
  <g
     transform="rotate(-26.408498,218.772,265.04943)"
     id="g1648">
    <g
       style="fill:#c70000;fill-opacity:1"
       id="g3165"
       transform="matrix(0.29241705,0,0,0.2326275,81.707792,137.8764)">
      <path
         style="fill:#c70000;fill-opacity:1;stroke:none;stroke-width:4;stroke-miterlimit:4;stroke-opacity:1"
         d="m 118.57142,252.36219 c -15.71429,58.54858 -54.30298,87.14286 -99.99999,87.14286 -42.858106,0 -85.291144,-34.96146 -95.71429,-87.14286 -14.071148,-70.44439 35.276564,-96.32784 95.71429,-95.71429 59.26282,0.60163 120.605,9.31491 99.99999,95.71429 z"
         id="path2383-3"
         sodipodi:nodetypes="csssc"
         inkscape:connector-curvature="0" />
      <path
         style="fill:#c70000;fill-opacity:1;stroke:none;stroke-width:4;stroke-miterlimit:4;stroke-opacity:1"
         d="m 116.42857,199.50504 c 29.0213,-8.16518 37.06537,-7.98149 65.68218,-0.71428 l 0.74639,25.71429 c -17.9413,-14.53421 -46.21799,-18.29444 -66.42857,0 z"
         id="rect2385"
         sodipodi:nodetypes="ccccc"
         inkscape:connector-curvature="0" />
      <path
         style="fill:#c70000;fill-opacity:1;stroke:none;stroke-width:4;stroke-miterlimit:4;stroke-opacity:1"
         d="m 372.74497,252.36219 c -15.71429,58.54858 -54.30298,87.14286 -99.99999,87.14286 -42.8581,0 -85.29114,-34.96146 -95.71429,-87.14286 -14.07114,-70.44439 35.27657,-96.32784 95.71429,-95.71429 59.26282,0.60163 120.605,9.31491 99.99999,95.71429 z"
         id="path2389"
         sodipodi:nodetypes="csssc"
         inkscape:connector-curvature="0" />
    </g>
    <path
       sodipodi:nodetypes="csssc"
       id="path2391-6"
       d="m 112.49799,196.48433 c -3.87736,11.49251 -13.398741,17.10528 -24.674034,17.10528 -10.574822,0 -21.044764,-6.86259 -23.616574,-17.10528 -3.47192,-13.82754 8.704151,-18.90821 23.616574,-18.78778 14.622534,0.1181 29.758114,1.82844 24.674034,18.78778 z"
       style="fill:url(#linearGradient3298);fill-opacity:1;stroke:none;stroke-width:1.04325831;stroke-miterlimit:4;stroke-opacity:1"
       inkscape:connector-curvature="0" />
    <path
       sodipodi:nodetypes="csssc"
       id="path3163"
       d="m 185.94541,196.46661 c -3.87735,11.49251 -13.39874,17.10529 -24.67403,17.10529 -10.57482,0 -21.04476,-6.86259 -23.61658,-17.10529 -3.47191,-13.82753 8.70416,-18.9082 23.61658,-18.78777 14.62253,0.1181 29.75812,1.82843 24.67403,18.78777 z"
       style="fill:url(#linearGradient3296);fill-opacity:1;stroke:none;stroke-width:1.04325831;stroke-miterlimit:4;stroke-opacity:1"
       inkscape:connector-curvature="0" />
    <path
       sodipodi:nodetypes="ccccccccc"
       id="rect3187"
       d="m 177.91953,174.80664 3.48945,-16.44336 3.42991,-17.90736 c 1.84086,-9.84808 5.93406,-11.43905 10.03843,-13.19418 4.4638,-1.80919 4.60657,4.46758 2.19502,5.4691 -7.2874,-0.19428 -7.89682,1.77913 -10.19658,13.08734 -1.15659,5.78764 -2.24698,11.41856 -3.37048,17.12784 -2.06287,9.66585 -2.03704,11.66545 -2.95252,17.11999 z"
       style="fill:#c70000;fill-opacity:1;stroke:none;stroke-width:0.72662932;stroke-miterlimit:4;stroke-opacity:1"
       inkscape:connector-curvature="0" />
    <path
       inkscape:connector-curvature="0"
       sodipodi:nodetypes="csssc"
       id="path3300-7"
       d="m 109.89036,190.02181 c 0,5.22814 -9.55545,9.47126 -21.329146,9.47126 -11.773679,0 -23.169917,-4.48614 -21.329132,-9.47126 2.91224,-7.88673 9.745224,-9.49808 21.329132,-9.47126 12.930926,0.0299 18.611066,1.41836 21.329146,9.47126 z"
       style="fill:url(#linearGradient3311);fill-opacity:1;stroke:none;stroke-width:1.15237236;stroke-miterlimit:4;stroke-opacity:1" />
    <path
       inkscape:connector-curvature="0"
       sodipodi:nodetypes="csssc"
       id="path3313"
       d="m 183.04906,190.13428 c 0,5.22813 -9.55545,9.47125 -21.32915,9.47125 -11.77367,0 -23.16991,-4.48614 -21.32912,-9.47125 2.91224,-7.88674 9.74522,-9.49809 21.32912,-9.47127 12.93092,0.0299 18.61107,1.41836 21.32915,9.47127 z"
       style="fill:url(#linearGradient3315);fill-opacity:1;stroke:none;stroke-width:1.15237236;stroke-miterlimit:4;stroke-opacity:1" />
    <path
       sodipodi:nodetypes="ccccccccc"
       id="rect3187-3"
       d="m 74.579332,175.98036 -3.48945,-16.44336 -3.42991,-17.90736 c -1.84086,-9.84808 -5.93406,-11.43905 -10.03843,-13.19418 -4.4638,-1.80919 -4.60657,4.46758 -2.19502,5.4691 7.2874,-0.19428 7.89682,1.77913 10.19658,13.08734 1.15659,5.78764 2.24698,11.41856 3.37048,17.12784 2.06287,9.66585 2.03704,11.66545 2.95252,17.11999 z"
       style="fill:#c70000;fill-opacity:1;stroke:none;stroke-width:0.72662932;stroke-miterlimit:4;stroke-opacity:1"
       inkscape:connector-curvature="0" />
  </g>
</svg>
