<?xml version="1.0" encoding="UTF-8" standalone="no"?>
<svg
   xmlns:dc="http://purl.org/dc/elements/1.1/"
   xmlns:cc="http://creativecommons.org/ns#"
   xmlns:rdf="http://www.w3.org/1999/02/22-rdf-syntax-ns#"
   xmlns:svg="http://www.w3.org/2000/svg"
   xmlns="http://www.w3.org/2000/svg"
   xmlns:xlink="http://www.w3.org/1999/xlink"
   xmlns:sodipodi="http://sodipodi.sourceforge.net/DTD/sodipodi-0.dtd"
   xmlns:inkscape="http://www.inkscape.org/namespaces/inkscape"
   id="svg2"
   height="393.30801"
   width="293.33234"
   version="1.0"
   sodipodi:docname="dog_hat_1.svg"
   inkscape:version="0.92.2 (5c3e80d, 2017-08-06)">
  <sodipodi:namedview
     pagecolor="#ffffff"
     bordercolor="#666666"
     borderopacity="1"
     objecttolerance="10"
     gridtolerance="10"
     guidetolerance="10"
     inkscape:pageopacity="0"
     inkscape:pageshadow="2"
     inkscape:window-width="1920"
     inkscape:window-height="1016"
     id="namedview5747"
     showgrid="false"
     inkscape:zoom="1.6971655"
     inkscape:cx="135.17911"
     inkscape:cy="242.12965"
     inkscape:window-x="0"
     inkscape:window-y="27"
     inkscape:window-maximized="1"
     inkscape:current-layer="svg2" />
  <metadata
     id="metadata925">
    <rdf:RDF>
      <cc:Work
         rdf:about="">
        <dc:format>image/svg+xml</dc:format>
        <dc:type
           rdf:resource="http://purl.org/dc/dcmitype/StillImage" />
        <dc:title></dc:title>
      </cc:Work>
    </rdf:RDF>
  </metadata>
  <defs
     id="defs4">
    <linearGradient
       gradientUnits="userSpaceOnUse"
       gradientTransform="scale(1.7811945,0.56142099)"
       id="linearGradient582"
       x1="118.03407"
       x2="111.23201"
       xlink:href="#linearGradient579"
       y1="250.64302"
       y2="259.05284" />
    <linearGradient
       id="linearGradient579">
      <stop
         id="stop580"
         offset="0.00000000"
         style="stop-color:#000000;stop-opacity:0.408333;" />
      <stop
         id="stop581"
         offset="1.00000000"
         style="stop-color:#000000;stop-opacity:0;" />
    </linearGradient>
    <linearGradient
       gradientUnits="userSpaceOnUse"
       gradientTransform="scale(1.5608154,0.64069074)"
       id="linearGradient584"
       x1="132.24107"
       x2="114.92293"
       xlink:href="#linearGradient585"
       y1="259.44822"
       y2="353.05175" />
    <linearGradient
       id="linearGradient585">
      <stop
         id="stop586"
         offset="0.00000000"
         style="stop-color:#ffffff;stop-opacity:0.175;" />
      <stop
         id="stop587"
         offset="1.00000000"
         style="stop-color:#ffffff;stop-opacity:0.375;" />
    </linearGradient>
    <linearGradient
       gradientUnits="userSpaceOnUse"
       y2="218.54974"
       x2="147.04346"
       y1="218.54974"
       x1="73.288838"
       gradientTransform="scale(2.1950053,0.45557976)"
       id="linearGradient589"
       xlink:href="#linearGradient585" />
  </defs>
  <g
     transform="matrix(0.88489889,0,0,0.86824997,41.395863,92.508658)"
     id="g994">
    <path
       style="fill:#784421;fill-opacity:1;fill-rule:evenodd;stroke:#000000;stroke-width:4;stroke-linecap:butt;stroke-linejoin:round;stroke-miterlimit:4;stroke-dasharray:none;stroke-opacity:1"
       id="path3205"
       d="m 166.65224,51.82047 c 1.5,-30.5 39,-75 45.5,-75.5 6.5,-0.5 -14,70.5 -19.5,75.5 -5.5,5 -25.5,1.5 -26,0 z"
       inkscape:connector-curvature="0" />
    <path
       style="fill:#000000;fill-opacity:0.31372549;fill-rule:evenodd;stroke:none;stroke-width:4;stroke-linecap:butt;stroke-linejoin:round;stroke-miterlimit:4;stroke-dasharray:none;stroke-opacity:1"
       id="path3257"
       d="m 212.15462,-23.68216 c -0.51578,0.03967 -1.25231,0.372711 -2.125,0.9375 -0.95373,13.1701026 -22.90707,66.26521 -28.15625,70.125 -2.9616,2.17771 -9.24829,1.940882 -14.875,0.9375 -0.15403,1.180374 -0.28749,2.35596 -0.34375,3.5 0.5,1.5 20.5,4.999998 26,0 5.5,-5 26,-76 19.5,-75.5 z"
       inkscape:connector-curvature="0" />
  </g>
  <g
     transform="matrix(0.88489889,0,0,0.86824997,27.640582,67.86291)"
     id="g998">
    <path
       style="opacity:1;fill:#a05a2c;fill-opacity:1;fill-rule:nonzero;stroke:#000000;stroke-width:3.99999976;stroke-linecap:round;stroke-linejoin:round;stroke-miterlimit:4;stroke-dasharray:none;stroke-opacity:1"
       id="path2383"
       d="m 269.77006,189.79667 a 123.38622,123.38622 0 1 1 -246.772435,0 123.38622,123.38622 0 1 1 246.772435,0 z"
       inkscape:connector-curvature="0" />
    <path
       style="opacity:1;fill:#000000;fill-opacity:0.31372549;fill-rule:nonzero;stroke:none;stroke-width:3.99999976;stroke-linecap:round;stroke-linejoin:round;stroke-miterlimit:4;stroke-dasharray:none;stroke-opacity:1"
       id="path3339"
       d="m 254.95244,131.17331 c 3.20192,10.97469 4.90625,22.58942 4.90625,34.59375 10e-6,68.10918 -55.26581,123.375 -123.375,123.375 -46.82508,0 -87.59785,-26.13219 -108.5,-64.59375 15.02313,51.20031 62.36706,88.62501 118.40625,88.625 68.10919,0 123.375,-55.26582 123.375,-123.375 0,-21.20992 -5.37317,-41.18573 -14.8125,-58.625 z"
       inkscape:connector-curvature="0" />
  </g>
  <g
     transform="matrix(0.88489889,0,0,0.86824997,-341.95782,72.557338)"
     id="g1012">
    <path
       style="opacity:1;fill:#000000;fill-opacity:0.31372549;fill-rule:nonzero;stroke:none;stroke-width:3.99999976;stroke-linecap:round;stroke-linejoin:round;stroke-miterlimit:4;stroke-dasharray:none;stroke-opacity:1"
       id="path3276"
       d="m 642.816,124.33913 a 95.386222,95.386222 0 1 1 -190.77244,0 95.386222,95.386222 0 1 1 190.77244,0 z"
       inkscape:connector-curvature="0" />
    <path
       style="opacity:1;fill:#a05a2c;fill-opacity:1;fill-rule:nonzero;stroke:#000000;stroke-width:3.99999976;stroke-linecap:round;stroke-linejoin:round;stroke-miterlimit:4;stroke-dasharray:none;stroke-opacity:1"
       id="path2418"
       d="m 637.816,110.83913 a 95.386222,95.386222 0 1 1 -190.77244,0 95.386222,95.386222 0 1 1 190.77244,0 z"
       inkscape:connector-curvature="0" />
    <path
       style="opacity:1;fill:#000000;fill-opacity:0.31372549;fill-rule:nonzero;stroke:none;stroke-width:3.99999976;stroke-linecap:round;stroke-linejoin:round;stroke-miterlimit:4;stroke-dasharray:none;stroke-opacity:1"
       id="path3251"
       d="m 629.48344,71.792449 c 1.52567,6.7692 2.34375,13.80329 2.34375,21.03125 0,52.653201 -42.75306,95.406251 -95.40625,95.406251 -38.77621,0 -72.1526,-23.19069 -87.0625,-56.4375 9.55506,42.58704 47.60536,74.4375 93.0625,74.4375 52.65319,0 95.40625,-42.75305 95.40625,-95.40625 0,-13.911841 -2.98257,-27.109711 -8.34375,-39.031251 z"
       inkscape:connector-curvature="0" />
    <path
       style="fill:#000000;fill-opacity:1;fill-rule:nonzero;stroke:none;stroke-width:4;stroke-linecap:round;stroke-linejoin:round;stroke-miterlimit:4;stroke-opacity:1"
       id="path2397"
       d="m 567.7788,157.27541 c 0,13.77556 -15.0863,24.95573 -25.06669,24.95573 -10.75169,0 -25.06669,-11.18017 -25.06669,-24.95573 0,-13.77555 11.22987,-17.27703 25.06669,-17.27703 13.83681,0 25.06669,3.50148 25.06669,17.27703 z"
       inkscape:connector-curvature="0" />
  </g>
  <path
     d="m 89.359742,103.19494 c -48.598718,-3.363678 -73.915108,54.09329 -67.278367,71.02416 5.395546,13.76449 35.208224,27.6477 34.005717,15.02359 -3.902315,-40.9673 48.433718,-84.9984 33.27265,-86.04775 z"
     id="path3201"
     style="fill:#784421;fill-opacity:1;fill-rule:evenodd;stroke:#000000;stroke-width:3.50613952;stroke-linecap:butt;stroke-linejoin:round;stroke-miterlimit:4;stroke-dasharray:none;stroke-opacity:1"
     inkscape:connector-curvature="0" />
  <g
     transform="matrix(0.88489889,0,0,0.86824997,133.49644,79.598981)"
     id="g977">
    <path
       style="fill:#a05a2c;fill-opacity:1;fill-rule:nonzero;stroke:#000000;stroke-width:4;stroke-linecap:round;stroke-linejoin:round;stroke-miterlimit:4;stroke-opacity:1"
       id="path3238"
       d="m 140.40339,309.72496 c 0,21.54475 -17.48559,20.77422 -39.03034,20.77422 -11.9799,0 -22.70476,0.23824 -29.86625,-3.25428 -5.71779,-2.78845 -9.16409,-7.95509 -9.16409,-17.51994 0,-21.54474 17.48559,-39.03033 39.03034,-39.03033 21.54475,0 39.03034,17.48559 39.03034,39.03033 z"
       inkscape:connector-curvature="0" />
    <g
       id="g3263"
       transform="matrix(-1,0,0,1,473.07264,-301.34262)">
      <path
         style="fill:none;fill-opacity:0.75;fill-rule:evenodd;stroke:#000000;stroke-width:4;stroke-linecap:round;stroke-linejoin:miter;stroke-miterlimit:4;stroke-dasharray:none;stroke-opacity:1"
         id="path3265"
         d="m 357.34172,628.69417 c -3.5026,-11.33139 0.50038,-24.55134 0.50038,-24.55134"
         inkscape:connector-curvature="0" />
      <path
         style="fill:none;fill-opacity:0.75;fill-rule:evenodd;stroke:#000000;stroke-width:4;stroke-linecap:round;stroke-linejoin:miter;stroke-miterlimit:4;stroke-dasharray:none;stroke-opacity:1"
         id="path3267"
         d="m 375.36715,631.21226 c 4.29303,-18.25613 -0.61329,-32.73512 -0.61329,-32.73512"
         inkscape:connector-curvature="0" />
      <path
         style="fill:none;fill-opacity:0.75;fill-rule:evenodd;stroke:#000000;stroke-width:4;stroke-linecap:round;stroke-linejoin:miter;stroke-miterlimit:4;stroke-dasharray:none;stroke-opacity:1"
         id="path3269"
         d="m 393.62142,629.3237 c 8.81331,-13.84948 1.25905,-25.18087 1.25905,-25.18087"
         inkscape:connector-curvature="0" />
    </g>
    <path
       style="fill:#000000;fill-opacity:0.31372549;fill-rule:nonzero;stroke:none;stroke-width:4;stroke-linecap:round;stroke-linejoin:round;stroke-miterlimit:4;stroke-opacity:1"
       id="path3332"
       d="m 121.38994,276.51706 c 4.72285,6.47998 7.53125,14.46734 7.53125,23.09375 1e-5,12.4664 -5.83515,23.55857 -14.90625,30.75 15.08125,-0.57257 25.90625,-3.69375 25.90625,-20.625 0,-14.03175 -7.40662,-26.33968 -18.53125,-33.21875 z"
       inkscape:connector-curvature="0" />
  </g>
  <g
     transform="matrix(0.88489889,0,0,0.86824997,-78.21527,80.772589)"
     id="g986">
    <path
       style="fill:#a05a2c;fill-opacity:1;fill-rule:nonzero;stroke:#000000;stroke-width:4;stroke-linecap:round;stroke-linejoin:round;stroke-miterlimit:4;stroke-opacity:1"
       id="path3235"
       d="m 230.42497,309.72497 c 0,21.54474 -17.48559,20.77422 -39.03034,20.77422 -21.54474,0 -39.03033,0.77052 -39.03033,-20.77422 0,-21.54475 17.48559,-39.03034 39.03033,-39.03034 21.54475,0 39.03034,17.48559 39.03034,39.03034 z"
       inkscape:connector-curvature="0" />
    <path
       style="fill:#000000;fill-opacity:0.31372549;fill-rule:nonzero;stroke:none;stroke-width:4;stroke-linecap:round;stroke-linejoin:round;stroke-miterlimit:4;stroke-opacity:1"
       id="path3327"
       d="m 211.88994,276.51706 c 4.72285,6.47998 7.53125,14.46734 7.53125,23.09375 1e-5,12.4664 -5.83515,23.55857 -14.90625,30.75 15.08125,-0.57257 25.90625,-3.69375 25.90625,-20.625 0,-14.03175 -7.40662,-26.33968 -18.53125,-33.21875 z"
       inkscape:connector-curvature="0" />
    <g
       id="g2410"
       transform="translate(-179.22609,-301.34262)">
      <path
         style="fill:none;fill-opacity:0.75;fill-rule:evenodd;stroke:#000000;stroke-width:4;stroke-linecap:round;stroke-linejoin:miter;stroke-miterlimit:4;stroke-dasharray:none;stroke-opacity:1"
         id="path2412"
         d="m 357.34172,628.69417 c -3.5026,-11.33139 0.50038,-24.55134 0.50038,-24.55134"
         inkscape:connector-curvature="0" />
      <path
         style="fill:none;fill-opacity:0.75;fill-rule:evenodd;stroke:#000000;stroke-width:4;stroke-linecap:round;stroke-linejoin:miter;stroke-miterlimit:4;stroke-dasharray:none;stroke-opacity:1"
         id="path2414"
         d="m 375.36715,631.21226 c 4.29303,-18.25613 -0.61329,-32.73512 -0.61329,-32.73512"
         inkscape:connector-curvature="0" />
      <path
         style="fill:none;fill-opacity:0.75;fill-rule:evenodd;stroke:#000000;stroke-width:4;stroke-linecap:round;stroke-linejoin:miter;stroke-miterlimit:4;stroke-dasharray:none;stroke-opacity:1"
         id="path2416"
         d="m 393.62142,629.3237 c 8.81331,-13.84948 1.25905,-25.18087 1.25905,-25.18087"
         inkscape:connector-curvature="0" />
    </g>
    <path
       style="fill:#000000;fill-opacity:0.31372549;fill-rule:nonzero;stroke:none;stroke-width:4;stroke-linecap:round;stroke-linejoin:round;stroke-miterlimit:4;stroke-opacity:1"
       id="path3349"
       d="m 157.57744,290.23581 c -3.31254,5.73475 -5.21875,12.4056 -5.21875,19.5 0,17.5051 11.55269,20.26284 27.4375,20.6875 -15.77979,-6.57803 -23.80465,-22.20756 -22.21875,-40.1875 z"
       inkscape:connector-curvature="0" />
  </g>
  <g
     transform="matrix(0.88489889,0,0,0.86824997,-3.4583116,28.547072)"
     id="g990">
    <path
       style="fill:#784421;fill-opacity:1;fill-rule:evenodd;stroke:#000000;stroke-width:4;stroke-linecap:butt;stroke-linejoin:round;stroke-miterlimit:4;stroke-dasharray:none;stroke-opacity:1"
       id="path3203"
       d="m 214.12335,88.00263 c 54.92008,-3.87409 83.52944,62.30152 76.02944,81.80152 -6.09736,15.85314 -39.78785,31.84301 -38.42893,17.3033 4.4099,-47.18377 -54.73362,-97.89624 -37.60051,-99.10482 z"
       inkscape:connector-curvature="0" />
    <path
       style="fill:#000000;fill-opacity:0.31372549;fill-rule:evenodd;stroke:none;stroke-width:4;stroke-linecap:butt;stroke-linejoin:round;stroke-miterlimit:4;stroke-dasharray:none;stroke-opacity:1"
       id="path3262"
       d="m 219.1875,87.84375 c 50.89889,10.29484 64.65984,77.40619 53.75,94.53125 -2.41806,3.79561 -6.75522,7.18923 -11.71875,9.90625 10.08469,-2.33116 25.06748,-12.40671 28.9375,-22.46875 7.26563,-18.89062 -19.36723,-81.590914 -70.96875,-81.96875 z"
       inkscape:connector-curvature="0" />
  </g>
  <g
     transform="translate(12.84108,-6.0826169)"
     id="g959">
    <path
       style="fill:#e3dbdb;fill-opacity:1;fill-rule:evenodd;stroke:#000000;stroke-width:4;stroke-linecap:butt;stroke-linejoin:round;stroke-miterlimit:4;stroke-dasharray:none;stroke-opacity:1"
       id="path3288"
       d="m 400.29723,304.72971 72.76745,-15.76016 c 0,0 12.42409,19.9535 26.81996,8.58429 14.39587,-11.36922 -5.74077,-22.66151 -5.74077,-22.66151 0,0 20.21722,-11.03467 0.3443,-20.93755 -19.87293,-9.90288 -26.50496,15.82679 -26.50496,15.82679 l -70.51608,12.45391 c 0,0 -18.34189,-24.58811 -31.81474,-8.35597 -13.47285,16.23214 5.01067,26.39874 5.01067,26.39874 0,0 -14.82685,12.89047 4.08764,21.53581 18.9145,8.64532 24.55271,-14.73652 25.54653,-17.08435 z" />
    <path
       style="fill:#000000;fill-opacity:0.31372549;fill-rule:evenodd;stroke:none;stroke-width:4;stroke-linecap:butt;stroke-linejoin:round;stroke-miterlimit:4;stroke-dasharray:none;stroke-opacity:1"
       id="path3300"
       d="m 386.86285,272.13186 c 1.97764,1.88541 3.83654,3.81669 5.64639,5.4489 0.23592,-0.0416 0.47022,-0.0924 0.70614,-0.13403 -1.73997,-1.74011 -3.89851,-3.66966 -6.35253,-5.31487 z m 108.92957,-17.4948 c 0.33338,0.46089 0.63558,0.95669 0.91124,1.44925 2.0148,6.02016 -6.39445,10.95384 -9.5075,14.30323 1.12726,2.20978 3.89323,3.67535 6.11701,5.58224 1.91416,-1.10496 19.0699,-12.1773 2.47925,-21.33472 z m -134.02474,35.93545 c 0.90937,2.22922 2.30674,4.12397 3.73861,5.62016 1.90089,-2.2584 -1.57236,-3.80273 -3.73861,-5.62016 z m 134.13957,-14.5505 c 0.44157,0.51308 0.82089,1.0873 1.11719,1.69642 6.03441,7.7081 -3.97619,17.17872 -11.87633,16.69502 -7.7556,-0.16903 -10.84066,-7.66412 -15.72266,-12.37897 -24.25878,5.25125 -50.25432,10.83214 -74.5131,16.08339 -2.47688,4.05128 -3.34406,9.33051 -6.64946,13.06286 -4.95021,7.83896 -15.93048,7.02915 -22.55248,1.67236 -0.13169,-0.0708 -0.2395,-0.17308 -0.36529,-0.24874 0.67663,3.12738 3.24852,6.39969 9.41544,9.21843 18.91449,8.64532 24.54779,-14.7462 25.54161,-17.09403 l 74.5131,-16.08339 c -10e-6,1e-5 10.68902,20.28534 25.0849,8.91613 11.69664,-9.2375 0.58086,-18.41923 -3.99292,-21.53948 z" />
  </g>
  <g
     transform="matrix(0.88489889,0,0,0.86824997,-351.52671,-153.36203)"
     id="g1018">
    <path
       style="fill:#ffffff;fill-opacity:1;fill-rule:nonzero;stroke:#000000;stroke-width:4.00000048;stroke-linecap:round;stroke-linejoin:round;stroke-miterlimit:4;stroke-dasharray:none;stroke-opacity:1"
       id="path2387"
       d="m 547.7673,365.87029 a 27.384189,27.384189 0 1 1 -54.76837,0 27.384189,27.384189 0 1 1 54.76837,0 z"
       inkscape:connector-curvature="0" />
    <path
       style="fill:#ffffff;fill-opacity:1;fill-rule:nonzero;stroke:#000000;stroke-width:4.00000048;stroke-linecap:round;stroke-linejoin:round;stroke-miterlimit:4;stroke-dasharray:none;stroke-opacity:1"
       id="path2391"
       d="m 611.34898,365.87029 a 27.38419,27.38419 0 1 1 -54.76838,0 27.38419,27.38419 0 1 1 54.76838,0 z"
       inkscape:connector-curvature="0" />
    <path
       style="fill:#000000;fill-opacity:1;fill-rule:nonzero;stroke:none;stroke-width:4;stroke-linecap:round;stroke-linejoin:round;stroke-miterlimit:4;stroke-dasharray:none;stroke-opacity:1"
       id="path2393"
       d="m 537.06543,369.01789 a 8.498545,8.498545 0 1 1 -16.99709,0 8.498545,8.498545 0 1 1 16.99709,0 z"
       inkscape:connector-curvature="0" />
    <path
       style="fill:#000000;fill-opacity:1;fill-rule:nonzero;stroke:none;stroke-width:4;stroke-linecap:round;stroke-linejoin:round;stroke-miterlimit:4;stroke-dasharray:none;stroke-opacity:1"
       id="path2395"
       d="m 583.65003,369.01789 a 8.498545,8.498545 0 1 1 -16.99709,0 8.498545,8.498545 0 1 1 16.99709,0 z"
       inkscape:connector-curvature="0" />
  </g>
  <g
     transform="matrix(0.41258643,0,0,0.32652344,36.10749,-1.4106925)"
     id="g847">
    <path
       inkscape:connector-curvature="0"
       d="m 93.858365,201.90265 c 2.91352,-12.97215 5.82704,-102.335813 32.048745,-100.89446 93.23273,2.8827 189.379,-93.6877177 259.30353,121.07335 C 600.81136,322.97602 400.20197,404.05192 229.51928,396.84518 60.861668,389.7842 -83.138159,268.20474 93.858365,201.90265 Z"
       id="path575"
       sodipodi:nodetypes="cccsc"
       style="font-size:12px;fill:#d90000;fill-opacity:0.99166697;fill-rule:evenodd;stroke:#000000;stroke-width:10;stroke-linejoin:round;stroke-dasharray:none" />
    <path
       inkscape:connector-curvature="0"
       d="m 89.488075,230.72964 c 107.800345,67.74344 285.525265,25.94429 292.809065,-7.20675 10.19734,11.5308 0,43.24049 0,43.24049 -46.61637,60.53668 -272.4144,47.56452 -297.179349,4.32404 -2.913522,-11.5308 2.913524,-36.03373 4.370284,-40.35778 z"
       id="path576"
       sodipodi:nodetypes="ccccc"
       style="font-size:12px;fill-rule:evenodd;stroke:#000000;stroke-width:5" />
    <path
       inkscape:connector-curvature="0"
       d="m 130.2774,122.62843 c 27.67847,-24.502941 148.58967,10.08945 164.61404,28.82699 5.82707,31.70969 -148.58966,7.20675 -164.61404,-28.82699 z"
       id="path578"
       sodipodi:nodetypes="ccc"
       style="fill:url(#linearGradient582);fill-opacity:1;fill-rule:evenodd;stroke-width:1.00000003pt" />
    <path
       inkscape:connector-curvature="0"
       d="m 130.2774,158.66217 c 13.11086,30.26834 64.09752,100.89445 150.04644,33.15103 -71.3813,2.8827 -101.97331,-5.76539 -150.04644,-33.15103 z"
       id="path583"
       sodipodi:nodetypes="ccc"
       style="fill:url(#linearGradient584);fill-opacity:1;fill-rule:evenodd;stroke-width:1.00000003pt" />
    <path
       inkscape:connector-curvature="0"
       d="m 160.86939,99.566839 c 18.93791,8.648101 138.39233,41.799131 151.50319,31.709691 14.56762,-5.7654 11.65412,-8.6481 4.3703,-10.08945 -11.6541,7.20675 -32.04876,11.5308 -155.87349,-21.620241 z"
       id="path588"
       sodipodi:nodetypes="cccc"
       style="fill:url(#linearGradient589);fill-opacity:1;fill-rule:evenodd;stroke-width:1.00000003pt" />
    <path
       inkscape:connector-curvature="0"
       d="m 106.96922,246.58449 c 17.48114,8.64809 71.38131,20.17889 91.77598,21.62025 14.56761,10.08942 7.2838,25.94428 1.45677,37.47508 -39.33257,0 -84.49218,-10.08946 -96.14627,-23.06162 -7.283815,-12.97212 -4.370295,-23.06158 2.91352,-36.03371 z"
       id="path590"
       sodipodi:nodetypes="ccccc"
       style="font-size:12px;fill:#ffffff;fill-opacity:0.31666703;fill-rule:evenodd;stroke:#000000;stroke-width:1.87834007pt" />
  </g>
</svg>
